<?xml version="1.0" encoding="UTF-8"?>
<!DOCTYPE svg PUBLIC "-//W3C//DTD SVG 1.1//EN" "http://www.w3.org/Graphics/SVG/1.1/DTD/svg11.dtd">
<svg version="1.1" xmlns="http://www.w3.org/2000/svg" xmlns:xlink="http://www.w3.org/1999/xlink" x="0px" y="0px" width="128" height="128" viewBox="0, 0, 128, 128">
  <g id="Background">
    <rect x="0" y="0" width="128" height="128" fill="#000000" fill-opacity="0"/>
  </g>
  <g id="Background">
    <path d="M18.093,6 L109.905,6 C116.561,6 122,11.439 122,18.093 L122,109.905 C122,116.561 116.561,122 109.905,122 L18.093,122 C11.439,122 6,116.561 6,109.905 L6,18.093 C6,11.439 11.439,6 18.093,6" fill="#737370"/>
    <path d="M70.498,30.368 L66.017,30.368 L66.017,39.987 C54.208,41.129 44.895,51.158 44.895,63.256 L44.895,73.586 L91.656,73.586 L91.656,63.256 C91.656,51.144 82.326,41.114 70.498,39.987 z" fill="#82D1F5"/>
    <path d="M96.959,28.163 C110.177,28.163 120.894,37.831 120.894,49.756 C120.894,61.684 110.177,71.353 96.959,71.353 C87.33,71.353 77.035,71.36 67.124,71.36 L75.851,59.946 C74.046,56.912 73.023,53.442 73.023,49.756 C73.023,37.831 83.74,28.163 96.959,28.163" fill="#EBEDED"/>
    <path d="M96.799,26.524 C103.679,26.524 109.939,29.061 114.471,33.151 C119.118,37.346 122,43.19 122,49.67 C122,56.153 119.118,61.997 114.471,66.192 C109.939,70.281 103.679,72.815 96.799,72.815 L96.799,72.81 L66.964,72.613 L66.017,70.959 L66.045,70.214 L74.075,59.708 C73.361,58.349 72.794,56.915 72.382,55.429 C71.875,53.587 71.597,51.652 71.597,49.67 C71.597,43.19 74.479,37.346 79.125,33.151 C83.663,29.061 89.918,26.524 96.799,26.524 z M112.975,35.65 C108.854,31.939 103.13,29.629 96.799,29.629 C90.468,29.629 84.744,31.939 80.622,35.65 C76.613,39.268 74.129,44.229 74.129,49.67 C74.129,51.319 74.356,52.918 74.771,54.436 C75.21,56.023 75.873,57.541 76.71,58.951 L77.324,59.981 L76.61,60.919 L69.878,69.726 L96.799,69.718 L96.799,69.714 C103.13,69.714 108.854,67.404 112.975,63.692 C116.983,60.075 119.467,55.106 119.467,49.67 C119.467,44.229 116.983,39.268 112.975,35.65" fill="#727272"/>
    <path d="M96.023,35.422 C102.742,35.422 108.185,42.096 108.185,50.334 C108.185,58.571 102.742,65.245 96.023,65.245 C89.304,65.245 83.861,58.571 83.861,50.334 C83.861,42.096 89.304,35.422 96.023,35.422 z M102.989,45.339 L91.949,58.874 C93.147,59.734 94.536,60.225 96.023,60.225 C100.477,60.225 104.09,55.794 104.09,50.334 C104.09,48.512 103.688,46.804 102.989,45.339 z M88.933,55.055 L99.873,41.642 C98.727,40.876 97.416,40.442 96.023,40.442 C91.569,40.442 87.956,44.873 87.956,50.334 C87.956,52.046 88.309,53.654 88.933,55.055" fill="#84D0F4"/>
    <path d="M57.944,48.933 C53.961,48.933 50.737,52.157 50.737,56.14 C50.737,60.127 53.961,63.351 57.944,63.351 C61.93,63.351 65.155,60.127 65.155,56.14 C65.155,52.157 61.93,48.933 57.944,48.933 z" fill="#737370"/>
    <path d="M66.017,22.569 L70.498,22.569 L70.498,26.524 L66.017,26.524 z" fill="#82D1F5"/>
    <path d="M96.575,122 L96.575,79.235 L109.308,93.909 L109.308,122 z" fill="#EBEDED"/>
    <path d="M45.065,78.687 L91.656,78.687 L91.656,122 L44.895,122 L44.895,94.215 L20.194,74.097 L20.202,74.084 L20.134,74.084 L20.134,38.142 L32.867,38.142 L32.867,68.75 z" fill="#EBEDED"/>
    <path d="M19.92,19.856 L28.66,19.856 L28.66,10.324 L32.867,10.324 C32.867,18.101 32.867,25.884 32.867,33.661 L19.92,33.661 z" fill="#82D1F5"/>
  </g>
  <defs/>
</svg>
